<?xml version="1.0" standalone="no"?>
<!DOCTYPE svg PUBLIC "-//W3C//DTD SVG 20010904//EN"
 "http://www.w3.org/TR/2001/REC-SVG-20010904/DTD/svg10.dtd">
<svg version="1.0" xmlns="http://www.w3.org/2000/svg"
 width="30.000000pt" height="33.000000pt" viewBox="0 0 30.000000 33.000000"
 preserveAspectRatio="xMidYMid meet">

<g transform="translate(0.000000,33.000000) scale(0.100000,-0.100000)"
fill="#000000" stroke="none">
<path d="M94 306 c-39 -33 -39 -89 0 -123 16 -13 27 -25 25 -26 -2 -1 -20 -10
-39 -20 -44 -22 -70 -57 -77 -102 l-6 -35 153 0 153 0 -6 34 c-8 48 -31 80
-75 102 -20 10 -39 20 -41 21 -2 1 9 13 25 26 57 50 20 147 -56 147 -16 0 -41
-11 -56 -24z m103 -32 c15 -24 15 -29 2 -53 -19 -34 -61 -39 -88 -12 -26 26
-26 46 -1 71 28 28 66 26 87 -6z m40 -188 c18 -20 33 -40 33 -46 0 -6 -46 -10
-120 -10 -66 0 -120 3 -120 6 0 3 8 19 17 35 41 69 134 76 190 15z"/>
</g>
</svg>
