<svg width="33" height="31" viewBox="0 0 33 31" fill="none" xmlns="http://www.w3.org/2000/svg">
<path id="icon_favourites" d="M32.9997 12.5147C33.012 13.0578 32.6917 13.5525 32.2237 13.9991C30.3761 15.761 28.5286 17.535 26.6687 19.2849C26.1883 19.7314 26.0528 20.2142 26.1637 20.8296C26.6194 23.3157 27.0505 25.8138 27.4939 28.2998C27.6664 29.217 27.4693 30.0135 26.6687 30.5687C25.8558 31.1359 25.0182 31.0755 24.156 30.6169C21.9143 29.4463 19.648 28.2998 17.4063 27.1292C16.8027 26.8155 16.2608 26.8034 15.6449 27.1292C13.3416 28.336 11.026 29.5187 8.69812 30.7014C7.8852 31.1117 7.08459 31.1117 6.34557 30.5566C5.60654 30.0014 5.3602 29.2653 5.54496 28.3843C5.61886 28.0223 5.66813 27.6602 5.72971 27.2982C6.11154 25.1018 6.49337 22.9054 6.89983 20.709C7.01069 20.1418 6.85056 19.7314 6.4441 19.3573C4.54728 17.5592 2.67509 15.749 0.77826 13.9508C0.347164 13.5405 0.0269204 13.0698 0.00228627 12.4543C-0.0469819 11.332 0.704358 10.4148 1.83753 10.2459C4.47337 9.87176 7.07227 9.47351 9.67117 9.12353C10.324 9.03905 10.7181 8.74942 11.0014 8.17015C12.1469 5.86513 13.317 3.58424 14.4748 1.27922C14.8813 0.470658 15.5218 0 16.4455 0C17.3693 0 18.0221 0.470658 18.4163 1.27922C18.4532 1.3637 18.4902 1.43611 18.5394 1.50852C19.6726 3.74113 20.8181 5.96167 21.9266 8.20635C22.1976 8.74942 22.5794 9.01492 23.1953 9.09939C25.8188 9.46144 28.4423 9.84762 31.0659 10.2338C32.2483 10.4269 33.012 11.2837 32.9997 12.5147ZM32.1251 12.3819C32.0143 11.6578 31.6201 11.3199 30.7333 11.1993C28.196 10.8372 25.671 10.4631 23.1337 10.1252C22.1483 9.99244 21.4832 9.50971 21.0521 8.62874C19.9436 6.38406 18.7981 4.16352 17.6772 1.93091C17.4186 1.42404 17.0983 1.04993 16.4702 1.04993C15.8543 1.04993 15.5834 1.46025 15.337 1.94297C14.2038 4.18765 13.046 6.43233 11.9252 8.68908C11.5187 9.50971 10.9029 9.99244 9.96678 10.1131C9.36324 10.1855 8.77202 10.2821 8.16849 10.3665C6.14849 10.6562 4.11618 10.9458 2.09618 11.2355C1.22167 11.3682 0.765943 11.9716 1.04924 12.6957C1.14777 12.9491 1.34484 13.1664 1.54192 13.3595C3.42643 15.1697 5.31093 16.9678 7.19544 18.766C7.78666 19.3211 8.00837 19.9728 7.87288 20.7572C7.42947 23.3036 6.98605 25.8379 6.53032 28.3843C6.43179 28.9274 6.45642 29.398 6.93678 29.748C7.42947 30.098 7.92215 29.9894 8.43946 29.7239C10.6688 28.5653 12.9229 27.443 15.1399 26.2603C16.076 25.7655 16.9259 25.7535 17.862 26.2603C20.1283 27.4671 22.4193 28.6257 24.698 29.8084C25.1783 30.0618 25.6464 30.1342 26.0898 29.7842C26.5209 29.4584 26.5825 29.0239 26.4963 28.5171C26.0405 25.9948 25.6341 23.4605 25.1537 20.9503C24.9689 20.009 25.2522 19.297 25.942 18.6574C27.8142 16.8954 29.6741 15.1093 31.5216 13.3232C31.768 13.0457 31.9281 12.6836 32.1251 12.3819Z" fill="black"/>
</svg>
