<?xml version="1.0" standalone="no"?>
<!DOCTYPE svg PUBLIC "-//W3C//DTD SVG 20010904//EN"
 "http://www.w3.org/TR/2001/REC-SVG-20010904/DTD/svg10.dtd">
<svg version="1.0" xmlns="http://www.w3.org/2000/svg"
 width="35.000000pt" height="33.000000pt" viewBox="0 0 35.000000 33.000000"
 preserveAspectRatio="xMidYMid meet">

<g transform="translate(0.000000,33.000000) scale(0.100000,-0.100000)"
fill="#000000" stroke="none">
<path d="M142 299 c-30 -54 -36 -59 -81 -67 -66 -11 -74 -33 -28 -80 36 -37
37 -41 29 -79 -10 -43 -1 -73 23 -73 8 0 30 10 50 21 l36 22 50 -23 c43 -21
51 -22 64 -9 11 11 12 23 4 58 -10 43 -9 45 28 83 46 47 38 69 -28 80 -45 8
-51 13 -81 67 -9 17 -24 31 -33 31 -9 0 -24 -14 -33 -31z m129 -94 l51 -7 -36
-37 c-34 -35 -36 -39 -30 -86 l7 -48 -42 23 -41 24 -47 -23 -46 -22 7 47 c6
45 4 50 -30 85 l-36 37 52 7 c48 7 52 10 73 51 l21 45 23 -45 c21 -41 26 -44
74 -51z"/>
</g>
</svg>
