<svg width="25" height="25" viewBox="0 0 25 25" fill="none" xmlns="http://www.w3.org/2000/svg">
<g id="icon_github-01 1" clip-path="url(#clip0_114_2130)">
<path id="Vector" d="M14.709 18.2716C15.2557 18.1481 15.7937 18.06 16.3228 17.91C18.4832 17.2928 19.7707 15.6614 19.9735 13.3774C20.1058 11.8342 19.9912 10.3792 18.9594 9.11815C18.8624 9.00352 18.8801 8.73897 18.9242 8.5626C19.1094 7.76013 19.03 6.9753 18.8536 6.17283C18.739 5.68782 18.4656 5.582 18.0864 5.72309C17.3104 6.02292 16.5608 6.4021 15.7937 6.71956C15.5556 6.81657 15.2557 6.90475 15.0176 6.85184C13.3157 6.46383 11.6138 6.4462 9.91182 6.86948C9.55908 6.95766 9.32981 6.85184 9.02998 6.70193C8.29806 6.34038 7.5485 6.02292 6.78131 5.72309C6.41094 5.57318 6.08466 5.70546 6.04938 6.14637C5.99647 6.95766 5.99647 7.76895 5.9612 8.58024C5.95238 8.80951 5.93475 9.07406 5.81129 9.25043C3.37743 12.6279 5.39683 17.4956 9.51499 18.1393C9.72663 18.1746 9.93827 18.2099 10.1146 18.2363C9.92064 18.739 9.74427 19.2328 9.54145 19.7178C9.49736 19.8148 9.40035 19.9206 9.30335 19.9647C8.24515 20.5026 6.97531 20.1499 6.25221 19.1711C5.91711 18.7213 5.54674 18.2628 5.11464 17.9189C4.72663 17.6102 4.23281 17.4515 3.63316 17.813C3.81834 18.007 3.97707 18.1481 4.10935 18.3157C4.54145 18.8448 5.12346 19.3298 5.36155 19.9383C5.92593 21.3933 7.22222 22.0988 8.95944 21.8695C9.10935 21.8518 9.26808 21.8254 9.50618 21.7901C9.50618 22.5309 9.53263 23.2187 9.49736 23.9153C9.4709 24.3827 9.05644 24.5679 8.51852 24.3739C6.56085 23.6684 4.89418 22.522 3.53616 20.9436C-0.943562 15.7407 -0.308641 7.81304 4.93827 3.39505C9.96473 -0.85539 17.5044 -0.0617395 21.649 5.1499C26.8166 11.6578 24.224 21.3668 16.5344 24.3122C15.679 24.6384 15.3527 24.418 15.3616 23.5097C15.3704 22.619 15.388 21.7196 15.3968 20.8289C15.4056 19.6649 15.2822 19.2328 14.709 18.2716Z" fill="black"/>
</g>
<defs>
<clipPath id="clip0_114_2130">
<rect width="25" height="25" fill="white"/>
</clipPath>
</defs>
</svg>
