<svg width="32" height="31" viewBox="0 0 32 31" fill="none" xmlns="http://www.w3.org/2000/svg">
<path d="M20.4975 20.631C15.0475 25.2804 7.22755 24.4064 2.96866 19.5823C-1.24211 14.8047 -0.941338 7.77826 3.66644 3.38526C8.21407 -0.949481 15.4806 -1.14757 20.305 2.94246C25.2376 7.12572 26.0436 14.6066 21.3276 19.792C21.4238 19.8969 21.5201 20.0018 21.6284 20.1066C24.9488 23.3227 28.2693 26.5388 31.5778 29.7433C31.674 29.8365 31.7823 29.9297 31.8665 30.0346C32.059 30.3026 32.047 30.5706 31.8064 30.8037C31.5658 31.0367 31.2891 31.0484 31.0124 30.8736C30.9041 30.8037 30.8078 30.6871 30.7116 30.5939C27.4031 27.3895 24.0947 24.185 20.7862 20.9806C20.69 20.8757 20.6057 20.7592 20.4975 20.631ZM1.21217 11.845C1.2242 17.7295 6.16884 22.5304 12.2323 22.5304C18.2958 22.5304 23.2525 17.7179 23.2525 11.845C23.2525 5.96047 18.2958 1.15963 12.2323 1.15963C6.14478 1.17128 1.20014 5.96047 1.21217 11.845Z" fill="black"/>
</svg>
