<svg width="28" height="31" viewBox="0 0 28 31" fill="none" xmlns="http://www.w3.org/2000/svg">
<g id="icon_user">
<path id="Vector" d="M13.9685 31C9.55449 31 5.14052 31 0.726543 31C0.107652 31 -0.0207968 30.8756 0.00255759 30.2762C0.189392 23.8975 5.14052 18.4009 11.6447 17.3718C19.1181 16.1842 26.066 20.7421 27.6891 27.9124C27.8643 28.7154 27.9227 29.541 27.9928 30.3553C28.0395 30.8417 27.8643 30.9887 27.3505 31C22.8782 31 18.4291 31 13.9685 31ZM27.0352 30.0952C27.2921 26.5779 24.4662 21.9183 20.6595 19.826C16.0587 17.2926 11.3878 17.3604 6.91545 20.0861C3.16707 22.3707 1.26369 25.8088 0.9017 30.0952C9.63623 30.0952 18.3241 30.0952 27.0352 30.0952Z" fill="black"/>
<path id="Vector_2" d="M21.6641 7.44181C21.6641 11.5472 18.231 14.8836 13.9922 14.8836C9.7534 14.8836 6.32031 11.5472 6.32031 7.44181C6.32031 3.33637 9.7534 0 13.9922 0C18.231 0.0113097 21.6641 3.33637 21.6641 7.44181ZM13.9805 14.0128C17.7056 14.0241 20.7416 11.0835 20.7533 7.48705C20.765 3.85662 17.7523 0.904779 14.0156 0.89347C10.2906 0.87085 7.23113 3.82269 7.21945 7.44181C7.21945 11.0609 10.2438 14.0015 13.9805 14.0128Z" fill="black"/>
</g>
</svg>
