<svg width="32" height="32" viewBox="0 0 32 32" fill="none" xmlns="http://www.w3.org/2000/svg">
<path d="M18.32 30.1714C18.32 29.6183 18.32 29.1104 18.32 28.6138C18.32 26.2885 18.32 23.9633 18.3087 21.6381C18.3087 21.4914 18.2635 21.3108 18.1619 21.2205C16.3672 19.4032 14.5612 17.6085 12.7552 15.8025C12.7327 15.7799 12.6988 15.7573 12.6762 15.746C10.0237 17.8568 6.42296 17.8229 3.73654 15.3058C2.83354 14.4593 2.25788 13.3305 1.98698 12.0776C1.69351 10.6328 1.80638 9.23315 2.41591 7.90123C3.71397 5.07936 6.41167 3.74744 9.09809 4.00705C12.0667 4.28924 14.7418 6.61446 15.0805 10.1136C15.182 10.1249 15.2949 10.1362 15.4078 10.1362C17.7556 10.1362 20.1034 10.1362 22.4512 10.1474C22.6882 10.1474 22.8124 10.0684 22.914 9.85397C24.3588 7.04338 25.8261 4.24409 27.2822 1.43351C27.3274 1.35449 27.3612 1.27548 27.4064 1.19647C27.5757 0.914283 27.8579 0.812696 28.1288 0.959433C28.3884 1.09488 28.49 1.38836 28.3432 1.69312C28.0498 2.26878 27.745 2.84444 27.4515 3.4201C26.3566 5.54215 25.2505 7.66419 24.1556 9.78624C24.0991 9.89911 24.054 10.0007 23.9863 10.1587C24.1556 10.1587 24.2798 10.1587 24.3926 10.1587C25.9954 10.1587 27.6096 10.1587 29.2124 10.1587C29.4946 10.1587 29.7429 10.1926 29.8671 10.4748C30.0025 10.7795 29.8445 10.994 29.6413 11.1972C26.3228 14.527 23.0043 17.8568 19.6745 21.1866C19.4939 21.3672 19.4036 21.5478 19.4148 21.8074C19.4261 24.46 19.4261 27.1125 19.4261 29.7651C19.4261 29.8892 19.4261 30.0134 19.4261 30.194C19.5616 30.194 19.6857 30.194 19.8099 30.194C21.3111 30.194 22.8124 30.1827 24.3249 30.2053C24.5168 30.2053 24.7425 30.273 24.878 30.3972C25.1489 30.6455 25.0134 31.097 24.6522 31.2212C24.5281 31.2663 24.3813 31.2663 24.2459 31.2663C20.7693 31.2663 17.3041 31.2663 13.8275 31.2663C13.7598 31.2663 13.6921 31.2663 13.6244 31.2663C13.2857 31.2324 13.0826 31.0293 13.0826 30.7245C13.0826 30.4198 13.297 30.2053 13.6357 30.2053C14.1549 30.194 14.6854 30.2053 15.2046 30.2053C16.2092 30.1714 17.2477 30.1714 18.32 30.1714ZM28.0611 11.2423C21.9207 11.2423 15.8367 11.2423 9.74148 11.2423C9.79792 11.3891 9.91079 11.4681 10.0011 11.5471C12.8568 14.3915 15.7013 17.2473 18.557 20.0917C18.8618 20.3965 18.873 20.3965 19.1778 20.0917C22.0674 17.2134 24.957 14.3351 27.8466 11.4568C27.903 11.4003 27.9708 11.3439 28.0611 11.2423ZM8.83848 10.1023C10.5768 10.1023 12.2812 10.1023 13.9969 10.1023C13.8388 7.44973 11.1863 4.85361 8.83848 5.06807C8.83848 6.73862 8.83848 8.40917 8.83848 10.1023ZM4.89915 14.8995C6.96476 16.6942 10.1817 16.5136 11.8071 14.9898C10.6332 13.8159 9.45929 12.6307 8.31926 11.4794C7.19051 12.6081 6.05047 13.7481 4.89915 14.8995ZM4.10903 14.0755C5.24906 12.9129 6.37781 11.7615 7.50656 10.6102C6.36652 9.49277 5.19262 8.35273 4.01873 7.20141C2.25788 9.34603 2.65294 12.4614 4.10903 14.0755ZM7.7436 9.25573C7.7436 7.84479 7.7436 6.46772 7.7436 5.09065C6.85188 5.09065 5.24906 5.81305 4.86529 6.37742C5.81344 7.32557 6.77287 8.27372 7.7436 9.25573Z" fill="black"/>
</svg>
