<?xml version="1.0" encoding="utf-8"?>
<!-- Generator: Adobe Illustrator 22.0.1, SVG Export Plug-In . SVG Version: 6.00 Build 0)  -->
<svg version="1.1" id="Слой_1" xmlns="http://www.w3.org/2000/svg" xmlns:xlink="http://www.w3.org/1999/xlink" x="0px" y="0px"
	 viewBox="0 0 16 15" style="enable-background:new 0 0 16 15;" xml:space="preserve">
<path d="M16,6.1c0,0.3-0.1,0.5-0.4,0.7c-0.9,0.9-1.8,1.7-2.7,2.6c-0.2,0.2-0.3,0.4-0.2,0.7c0.2,1.2,0.4,2.4,0.6,3.6
	c0.1,0.4,0,0.8-0.4,1.1c-0.4,0.3-0.8,0.2-1.2,0c-1.1-0.6-2.2-1.1-3.3-1.7c-0.3-0.2-0.6-0.2-0.9,0c-1.1,0.6-2.2,1.2-3.4,1.7
	c-0.4,0.2-0.8,0.2-1.1-0.1c-0.4-0.3-0.5-0.6-0.4-1.1c0-0.2,0.1-0.4,0.1-0.5C3,12.1,3.1,11.1,3.3,10c0.1-0.3,0-0.5-0.2-0.7
	C2.2,8.5,1.3,7.6,0.4,6.8C0.2,6.6,0,6.3,0,6C0,5.5,0.3,5,0.9,5c1.3-0.2,2.5-0.4,3.8-0.5C5,4.4,5.2,4.2,5.3,4C5.9,2.8,6.5,1.7,7,0.6
	C7.2,0.2,7.5,0,8,0c0.4,0,0.8,0.2,1,0.6c0,0,0,0.1,0.1,0.1c0.5,1.1,1.1,2.2,1.6,3.2c0.1,0.3,0.3,0.4,0.6,0.4
	c1.3,0.2,2.5,0.4,3.8,0.5C15.6,5,16,5.5,16,6.1z"/>
</svg>
